<svg width="750" height="300" viewBox="0 0 750 300" fill="none" xmlns="http://www.w3.org/2000/svg">
<path d="M195.741 160.002C195.741 155.034 196.599 150.495 198.317 146.386C200.095 142.276 202.549 138.719 205.677 135.714C208.866 132.708 212.546 130.408 216.717 128.814C220.949 127.158 225.518 126.33 230.425 126.33C235.393 126.33 239.993 127.158 244.225 128.814C248.457 130.408 252.106 132.708 255.173 135.714C258.301 138.719 260.723 142.276 262.441 146.386C264.219 150.495 265.109 155.034 265.109 160.002C265.109 164.97 264.25 169.539 262.533 173.71C260.877 177.88 258.485 181.499 255.357 184.566C252.229 187.632 248.549 190.024 244.317 191.742C240.146 193.398 235.515 194.226 230.425 194.226C225.395 194.226 220.765 193.398 216.533 191.742C212.301 190.024 208.621 187.632 205.493 184.566C202.365 181.499 199.942 177.88 198.225 173.71C196.569 169.539 195.741 164.97 195.741 160.002ZM212.209 160.002C212.209 163.804 212.945 167.178 214.417 170.122C215.95 173.004 218.097 175.274 220.857 176.93C223.617 178.586 226.806 179.414 230.425 179.414C234.105 179.414 237.294 178.586 239.993 176.93C242.691 175.274 244.777 173.004 246.249 170.122C247.782 167.178 248.549 163.804 248.549 160.002C248.549 156.199 247.813 152.856 246.341 149.974C244.869 147.03 242.783 144.73 240.085 143.074C237.386 141.418 234.166 140.59 230.425 140.59C226.806 140.59 223.617 141.418 220.857 143.074C218.097 144.73 215.95 147.03 214.417 149.974C212.945 152.856 212.209 156.199 212.209 160.002ZM266.023 149.882H280.927L290.587 173.342L300.247 149.882H315.151L290.587 197.17L266.023 149.882ZM337.295 193.122C332.327 193.122 328.033 192.232 324.415 190.454C320.857 188.614 318.097 186.038 316.135 182.726C314.172 179.414 313.191 175.519 313.191 171.042C313.191 164.172 315.307 158.775 319.539 154.85C323.771 150.924 329.597 148.962 337.019 148.962C344.317 148.962 349.929 150.832 353.855 154.574C357.841 158.315 359.835 163.59 359.835 170.398C359.835 171.072 359.835 171.716 359.835 172.33C359.835 172.943 359.804 173.495 359.743 173.986H327.451C327.819 176.868 328.831 179.107 330.487 180.702C332.143 182.296 334.32 183.094 337.019 183.094C341.925 183.094 345.421 181.254 347.507 177.574L360.019 180.61C355.541 188.951 347.967 193.122 337.295 193.122ZM336.743 158.254C331.713 158.254 328.677 160.922 327.635 166.258H344.931C344.685 163.804 343.827 161.872 342.355 160.462C340.944 158.99 339.073 158.254 336.743 158.254ZM391.137 164.326C390.401 163.59 389.604 163.007 388.745 162.578C387.948 162.148 386.936 161.934 385.709 161.934C383.685 161.934 382.029 162.731 380.741 164.326C379.514 165.92 378.901 168.251 378.901 171.318V192.202H365.193V149.882H378.901V155.218C380.25 153.255 381.845 151.722 383.685 150.618C385.586 149.452 387.549 148.87 389.573 148.87C391.106 148.87 392.578 149.207 393.989 149.882C395.4 150.495 396.473 151.323 397.209 152.366L391.137 164.326ZM427.305 166.442C427.305 163.927 426.845 162.026 425.925 160.738C425.005 159.388 423.411 158.714 421.141 158.714C418.933 158.714 417.155 159.388 415.805 160.738C414.456 162.026 413.781 163.927 413.781 166.442V192.202H399.797V120.442H413.781V155.678C414.947 153.408 416.603 151.63 418.749 150.342C420.896 148.992 423.533 148.318 426.661 148.318C431.936 148.318 435.677 149.698 437.885 152.458C440.093 155.218 441.197 159.204 441.197 164.418V192.202H427.305V166.442ZM470.486 193.122C465.518 193.122 461.225 192.232 457.606 190.454C454.049 188.614 451.289 186.038 449.326 182.726C447.364 179.414 446.382 175.519 446.382 171.042C446.382 164.172 448.498 158.775 452.73 154.85C456.962 150.924 462.789 148.962 470.21 148.962C477.509 148.962 483.121 150.832 487.046 154.574C491.033 158.315 493.026 163.59 493.026 170.398C493.026 171.072 493.026 171.716 493.026 172.33C493.026 172.943 492.996 173.495 492.934 173.986H460.642C461.01 176.868 462.022 179.107 463.678 180.702C465.334 182.296 467.512 183.094 470.21 183.094C475.117 183.094 478.613 181.254 480.698 177.574L493.21 180.61C488.733 188.951 481.158 193.122 470.486 193.122ZM469.934 158.254C464.905 158.254 461.869 160.922 460.826 166.258H478.122C477.877 163.804 477.018 161.872 475.546 160.462C474.136 158.99 472.265 158.254 469.934 158.254ZM502.985 162.854L498.293 153.562C500.746 152.396 503.629 151.292 506.941 150.25C510.314 149.207 513.994 148.686 517.981 148.686C521.722 148.686 525.065 149.238 528.009 150.342C530.953 151.384 533.283 152.918 535.001 154.942C536.718 156.966 537.577 159.45 537.577 162.394V192.202H524.237V186.406C522.949 188.614 521.017 190.3 518.441 191.466C515.926 192.57 513.197 193.122 510.253 193.122C507.554 193.122 505.039 192.631 502.709 191.65C500.439 190.607 498.599 189.074 497.189 187.05C495.839 185.026 495.165 182.572 495.165 179.69C495.165 175.642 496.575 172.452 499.397 170.122C502.279 167.73 506.389 166.534 511.725 166.534C514.301 166.534 516.662 166.81 518.809 167.362C520.955 167.852 522.765 168.466 524.237 169.202V165.522C524.237 161.351 521.569 159.266 516.233 159.266C514.393 159.266 512.553 159.48 510.713 159.91C508.873 160.339 507.247 160.86 505.837 161.474C504.487 162.026 503.537 162.486 502.985 162.854ZM509.241 178.954C509.241 180.61 509.793 181.898 510.897 182.818C512.062 183.676 513.503 184.106 515.221 184.106C517.49 184.106 519.514 183.431 521.293 182.082C523.071 180.671 524.053 178.586 524.237 175.826C521.722 174.722 518.993 174.17 516.049 174.17C513.595 174.17 511.847 174.599 510.805 175.458C509.762 176.255 509.241 177.42 509.241 178.954ZM539.79 149.882H547.242V135.162H560.674V149.882H568.126V161.382H560.674V192.202H547.242V161.382H539.79V149.882ZM592.447 193.122C587.479 193.122 583.186 192.232 579.567 190.454C576.01 188.614 573.25 186.038 571.287 182.726C569.325 179.414 568.343 175.519 568.343 171.042C568.343 164.172 570.459 158.775 574.691 154.85C578.923 150.924 584.75 148.962 592.171 148.962C599.47 148.962 605.082 150.832 609.007 154.574C612.994 158.315 614.987 163.59 614.987 170.398C614.987 171.072 614.987 171.716 614.987 172.33C614.987 172.943 614.957 173.495 614.895 173.986H582.603C582.971 176.868 583.983 179.107 585.639 180.702C587.295 182.296 589.473 183.094 592.171 183.094C597.078 183.094 600.574 181.254 602.659 177.574L615.171 180.61C610.694 188.951 603.119 193.122 592.447 193.122ZM591.895 158.254C586.866 158.254 583.83 160.922 582.787 166.258H600.083C599.838 163.804 598.979 161.872 597.507 160.462C596.097 158.99 594.226 158.254 591.895 158.254ZM617.862 171.042C617.862 166.258 618.812 162.24 620.714 158.99C622.615 155.678 625.099 153.194 628.166 151.538C631.232 149.82 634.483 148.962 637.918 148.962C644.174 148.962 649.019 151.538 652.454 156.69V120.442H666.346V192.202H652.454V185.394C649.019 190.546 644.174 193.122 637.918 193.122C634.483 193.122 631.232 192.294 628.166 190.638C625.099 188.92 622.615 186.406 620.714 183.094C618.812 179.782 617.862 175.764 617.862 171.042ZM632.49 171.042C632.49 174.354 633.471 176.991 635.434 178.954C637.458 180.916 639.85 181.898 642.61 181.898C644.204 181.898 645.738 181.468 647.21 180.61C648.743 179.751 650 178.524 650.982 176.93C651.963 175.274 652.454 173.311 652.454 171.042C652.454 168.711 651.963 166.748 650.982 165.154C650 163.559 648.743 162.332 647.21 161.474C645.738 160.615 644.204 160.186 642.61 160.186C639.85 160.186 637.458 161.167 635.434 163.13C633.471 165.092 632.49 167.73 632.49 171.042Z" fill="#0F1131"/>
<path d="M116.549 84.7017C119.406 102.464 97.3009 132.882 92.3826 160.263C91.0965 165.985 91.1522 172.945 92.1584 179.202C95.9743 202.927 117.903 218.459 139.099 214.903C160.295 211.347 174.385 189.231 170.569 165.506C165.293 132.702 137.033 96.2224 116.549 84.7017ZM141.114 203.202C126.052 205.729 116.636 194.202 114.188 185.194C110.461 162.016 119.682 153.624 121.206 147.139C123.515 148.438 128.575 151.832 128.575 151.832C128.575 151.832 133.281 136.194 135.239 127.694C148.947 137.702 153.353 153.209 155.311 169.202C157.269 185.194 153.842 201.066 141.114 203.202Z" fill="#0F1131"/>
</svg>
